# xmcd
# Track frame offsets:
# 150
# 13197
# 25774
# 37862
# 55365
# 70160
# 83701
# 101908
# 115628
# 127043
# 145579
#
# Disc length: 2146 seconds
# Revision: 0
# Processed by: cddbd v1.5.1PL0 Copyright (c) Steve Scherf et al.
# Submitted via: VisiTrax 2.9.9.209 - For more info visit www.synapsa.com
#
DISCID=8c08600b
DTITLE=Butch Martin - Come ride the wagon
DYEAR=4
DGENRE=
TTITLE0=Mojave
TTITLE1=Goodbye to Montana
TTITLE2=The everlasting hills og Oklahoma
TTITLE3=Tennessee stud
TTITLE4=Cheyenne wind
TTITLE5=Colorado trail
TTITLE6=Song of Wyoming
TTITLE7=Little bear station
TTITLE8=Henry Luther Little
TTITLE9=Penny Ante memories
TTITLE10=The wagon tongue
EXTD=
EXTT0=
EXTT1=
EXTT2=
EXTT3=
EXTT4=
EXTT5=
EXTT6=
EXTT7=
EXTT8=
EXTT9=
EXTT10=
PLAYORDER=
